<?xml version="1.0" encoding="UTF-8"?>
<svg id="Capa_1" xmlns="http://www.w3.org/2000/svg" version="1.1" viewBox="0 0 90 90">
  <!-- Generator: Adobe Illustrator 29.5.0, SVG Export Plug-In . SVG Version: 2.1.0 Build 137)  -->
  <defs>
    <style>
      .st0 {
        fill: #66f;
      }
    </style>
  </defs>
  <rect id="Rectangle_4525" class="st0" width="90" height="90"/>
  <path d="M60.31,39.82c-3.04-3.01-6.32-4.27-10.96-4.2-.94.01-2.97,0-4.59,0-.71,0-1.35,0-1.82,0h-8.84c-.49,0-.92-.14-1.03-.19-1.09-.59-1.05-1.69-.85-2.25.04-.11.43-1.1,1.79-1.05.15,0,.89.08,1.36.83.29.47.25,1.38.23,1.82,0,.06,0,.12,0,.18h6.56c.05-1.06.1-3.35-1.23-5.47-2.17-3.48-5.66-3.87-6.67-3.91-4.3-.17-7.23,2.6-8.23,5.42-1.4,3.98.28,8.29,4.01,10.25.86.45,2.38.93,4.06.93h1.3s7.07,0,7.07,0h0s.47,0,.47,0c.46,0,1.09,0,1.8,0,1.65,0,3.71.01,4.71,0h0c2.89-.04,4.47.54,6.25,2.3,2.64,2.61,2.55,6.56,1.64,8.52-1.44,3.11-3.76,4.74-6.91,4.86-3.87.15-6.02-2.3-6.77-3.35-1.19-1.68-1.53-2.95-1.5-8.13v-3.55s-6.56,0-6.56,0v3.52c-.03,5.67.35,8.59,2.71,11.93.79,1.12,2.17,2.72,4.29,4.03,2.26,1.4,4.78,2.1,7.49,2.1.2,0,.4,0,.6-.01,3.37-.13,6.3-1.26,8.71-3.36,1.61-1.4,2.92-3.19,3.9-5.31,2.05-4.42,1.68-11.32-2.97-15.93Z"/>
</svg>